<svg width="200" height="151" viewBox="0 0 200 151" fill="none" xmlns="http://www.w3.org/2000/svg">
<path fill-rule="evenodd" clip-rule="evenodd" d="M75.0408 25.057L75.1167 25.1332L125.024 75.0408L124.959 75.1066C125.015 75.1622 125.071 75.218 125.127 75.2741C138.93 89.0767 138.93 111.455 125.127 125.258C111.325 139.06 88.9462 139.06 75.1436 125.258C74.532 124.646 73.9475 124.018 73.3901 123.374L25.057 75.0408L25.0572 75.0407L25.0571 75.0407C11.2545 61.2381 11.2545 38.8596 25.0571 25.057C38.8597 11.2544 61.2382 11.2544 75.0408 25.057Z" fill="#6A29D6"/>
<path fill-rule="evenodd" clip-rule="evenodd" d="M175.008 75.0408L174.93 75.1185L125.024 125.024L124.959 124.959C124.903 125.015 124.847 125.071 124.791 125.127C110.988 138.93 88.61 138.93 74.8074 125.127C61.0048 111.325 61.0048 88.9462 74.8074 75.1436C75.419 74.532 76.0475 73.9475 76.6913 73.3901L125.024 25.057L125.024 25.0572L125.025 25.0571C138.827 11.2545 161.206 11.2545 175.008 25.0571C188.811 38.8597 188.811 61.2382 175.008 75.0408Z" fill="#8754DE"/>
<circle cx="150.016" cy="50.049" r="17.5984" transform="rotate(45 150.016 50.049)" fill="white"/>
</svg>
